<?xml version="1.0" encoding="UTF-8" standalone="no"?><!DOCTYPE svg PUBLIC "-//W3C//DTD SVG 1.1//EN" "http://www.w3.org/Graphics/SVG/1.1/DTD/svg11.dtd"><svg width="100%" height="100%" viewBox="0 0 284 284" version="1.1" xmlns="http://www.w3.org/2000/svg" xmlns:xlink="http://www.w3.org/1999/xlink" xml:space="preserve" style="fill-rule:evenodd;clip-rule:evenodd;stroke-linecap:round;stroke-linejoin:round;stroke-miterlimit:1.5;"><g><circle cx="175.185" cy="216.366" r="5.765" style="fill:#080000;"/><circle cx="162.243" cy="216.601" r="5.765" style="fill:#080000;"/><rect x="153.89" y="220.484" width="27.766" height="12.236" style="fill:#080000;"/><path d="M160.361,226.955l-13.178,5.412l0,-10.824l13.178,5.412Z" style="fill:#080000;"/><rect x="159.066" y="230.367" width="17.177" height="5.883" style="fill:#080000;"/><path d="M168.43,227.247l-1.573,0.935l16.479,27.707l1.572,-0.936l-16.478,-27.706Z" style="fill:#080000;"/><path d="M168.783,227.787l-1.565,-0.949l-16.708,27.57l1.565,0.948l16.708,-27.569Z" style="fill:#080000;"/><rect x="167.203" y="223.567" width="1.83" height="32.237" style="fill:#080000;"/><path d="M179.773,222.131l0,8.471l-24.942,0l24.942,-8.471Z" style="fill:#080000;"/></g><g><circle cx="33.78" cy="214.225" r="5.991" style="fill:#080000;"/><circle cx="20.33" cy="214.47" r="5.991" style="fill:#080000;"/><rect x="11.648" y="218.505" width="28.857" height="12.717" style="fill:#080000;"/><path d="M18.373,225.23l-13.695,5.625l0,-11.25l13.695,5.625Z" style="fill:#080000;"/><rect x="17.028" y="228.776" width="17.852" height="6.114" style="fill:#080000;"/><path d="M26.759,225.533l-1.634,0.972l17.126,28.795l1.634,-0.972l-17.126,-28.795Z" style="fill:#080000;"/><path d="M27.126,226.094l-1.626,-0.985l-17.364,28.652l1.626,0.986l17.364,-28.653Z" style="fill:#080000;"/><rect x="25.484" y="221.709" width="1.902" height="33.503" style="fill:#080000;"/><path d="M38.548,220.217l0,8.803l-25.922,0l25.922,-8.803Z" style="fill:#080000;"/></g><path d="M44.408,210.693l0,-174.072" style="fill:none;stroke:#c9c9c9;stroke-width:5.67px;"/><path d="M44.408,211.296l96.435,0" style="fill:none;stroke:#0039c8;stroke-width:5.67px;"/><path d="M141.446,210.693l-95.832,-173.319" style="fill:none;stroke:#ff0018;stroke-width:5.67px;"/><text x="114.71px" y="205.371px" style="font-family:'ArialMT', 'Arial', sans-serif;font-size:20.916px;">α</text><g transform="matrix(0.496543,0.868012,-0.868012,0.496543,106.416,-189.245)"><text x="241.853px" y="156.411px" style="font-family:'ArialMT', 'Arial', sans-serif;font-size:11px;fill:#ff0018;">recovery path</text></g><g><text x="200.617px" y="150.366px" style="font-family:'ArialMT', 'Arial', sans-serif;font-size:10px;fill:#ff0018;">recovery path</text><text x="195.506px" y="134.711px" style="font-family:'ArialMT', 'Arial', sans-serif;font-size:10px;fill:#0039c8;">camera distance</text><g transform="matrix(0.24,0,0,0.24,-28.2676,14.4625)"><text x="721.07px" y="545px" style="font-family:'ArialMT', 'Arial', sans-serif;font-size:50px;fill:#0d0d0d;">tan(</text><text x="807.227px" y="545px" style="font-family:'ArialMT', 'Arial', sans-serif;font-size:50px;fill:#0d0d0d;">α) =</text></g><path d="M196.723,140.003l70.34,0" style="fill:none;stroke:#030000;stroke-width:1px;"/></g><text x="54.826px" y="224.116px" style="font-family:'ArialMT', 'Arial', sans-serif;font-size:10px;fill:#0039c8;">camera distance</text></svg>